# xmcd
# 
# Track frame offsets:
#     150
#     24775
#     45453
#     66670
#     86335
#     104405
#     128325
#     150245
#     173250
#     196573
# 
# Disc length: 2905
# 
# Revision: 4
# Processed by: cddbd v1.5.2PL0 Copyright (c) Steve Scherf et al.
# Submitted via: fre:ac v1.0.31
# 
DISCID=620b570a
DTITLE=Various Artist - Hát Cho Tình Yêu - Ngọc Lan - Khánh Hà - Khanh Hà Productions
DYEAR=1995
DGENRE=Pop
TTITLE0=Khánh Hà - Sao Đành Xa Em - Magaret Phạm
TTITLE1=Ngọc Lan - Tiếc Thu - Trần Thiện Thanh
TTITLE2=Khánh Hà - Ru Mãi Ngàn Năm - Trịnh Công Sơn
TTITLE3=Ngọc Lan - Tưởng Rằng Đã Quên - Trịnh Công Sơn
TTITLE4=Khánh Hà - Mộng Sầu - Trầm Tử Thiêng
TTITLE5=Ngọc Lan - Suối Tóc - Văn Phụng
TTITLE6=Khánh Hà - Rồi Mai Tôi Đưa Em - Trường Sa
TTITLE7=Ngọc Lan - Thung Lũng Hồng - Phạm Mạnh Cường
TTITLE8=Khánh Hà - Ngăn Cách - Đỗ Lễ
TTITLE9=Ngọc Lan - Tôi Đưa Em Sang Sông - Nhật Ngân - Y Vũ
EXTD=
EXTT0=
EXTT1=
EXTT2=
EXTT3=
EXTT4=
EXTT5=
EXTT6=
EXTT7=
EXTT8=
EXTT9=
PLAYORDER=
